<?xml version="1.0" encoding="UTF-8" standalone="no"?>
<!-- Created with Inkscape (http://www.inkscape.org/) -->

<svg
   xmlns:dc="http://purl.org/dc/elements/1.1/"
   xmlns:cc="http://creativecommons.org/ns#"
   xmlns:rdf="http://www.w3.org/1999/02/22-rdf-syntax-ns#"
   xmlns:svg="http://www.w3.org/2000/svg"
   xmlns="http://www.w3.org/2000/svg"
   xmlns:xlink="http://www.w3.org/1999/xlink"
   xmlns:sodipodi="http://sodipodi.sourceforge.net/DTD/sodipodi-0.dtd"
   xmlns:inkscape="http://www.inkscape.org/namespaces/inkscape"
   width="61.521988mm"
   height="49.492943mm"
   viewBox="0 0 217.9913 175.36869"
   id="svg2"
   version="1.1"
   inkscape:version="0.91 r13725"
   sodipodi:docname="lacuinamediterranea.svg">
  <defs
     id="defs4" />
  <sodipodi:namedview
     id="base"
     pagecolor="#ffffff"
     bordercolor="#666666"
     borderopacity="1.0"
     inkscape:pageopacity="0.0"
     inkscape:pageshadow="2"
     inkscape:zoom="1.4"
     inkscape:cx="146.87217"
     inkscape:cy="20.451005"
     inkscape:document-units="px"
     inkscape:current-layer="layer1"
     showgrid="false"
     fit-margin-top="0"
     fit-margin-left="0"
     fit-margin-right="0"
     fit-margin-bottom="0"
     inkscape:window-width="1268"
     inkscape:window-height="747"
     inkscape:window-x="422"
     inkscape:window-y="94"
     inkscape:window-maximized="0" />
  <metadata
     id="metadata7">
    <rdf:RDF>
      <cc:Work
         rdf:about="">
        <dc:format>image/svg+xml</dc:format>
        <dc:type
           rdf:resource="http://purl.org/dc/dcmitype/StillImage" />
        <dc:title></dc:title>
      </cc:Work>
    </rdf:RDF>
  </metadata>
  <g
     inkscape:label="Capa 1"
     inkscape:groupmode="layer"
     id="layer1"
     transform="translate(-78.670249,-623.62937)">
    <path
       style="fill:#0000ff"
       d="m 175.92306,768.91627 c -0.42767,-0.15597 -0.94361,-0.18702 -1.14654,-0.069 -0.20293,0.11802 -0.71347,-0.0607 -1.13455,-0.39715 -1.70768,-1.3645 -2.66751,-1.70458 -3.23577,-1.14648 -0.29946,0.29411 -0.5057,0.33053 -0.45832,0.0809 0.19345,-1.01895 -0.0706,-1.15152 -0.99867,-0.50145 -0.88589,0.6205 -1.08107,0.60298 -2.08569,-0.18725 -0.67838,-0.53362 -1.61959,-0.81228 -2.42629,-0.71836 -0.72488,0.0844 -1.31796,-0.036 -1.31796,-0.26762 0,-0.23159 -0.18594,-0.30616 -0.41319,-0.1657 -0.22726,0.14045 -1.43118,-0.25594 -2.67537,-0.88086 -1.2442,-0.62493 -2.43674,-1.13809 -2.65009,-1.14037 -0.81893,-0.009 -4.55097,-2.08611 -5.5256,-3.07569 -0.56209,-0.57071 -1.2503,-0.89653 -1.52937,-0.72407 -0.30254,0.18699 -0.38078,0.10875 -0.1938,-0.1938 0.17247,-0.27906 -0.1023,-0.92327 -0.61061,-1.43158 -0.5083,-0.5083 -0.92419,-1.21741 -0.92419,-1.57578 0,-0.93282 -3.66036,-4.82938 -4.21476,-4.48675 -0.26599,0.1644 -0.32543,0.0629 -0.13942,-0.23809 0.18742,-0.30324 -0.30966,-1.11195 -1.17788,-1.91634 -2.56619,-2.37749 -2.94468,-2.45308 -4.49922,-0.89854 -0.76121,0.76121 -1.57253,1.38402 -1.80294,1.38402 -0.2304,0 -0.4189,0.19626 -0.4189,0.43614 0,0.7967 -2.02544,2.33768 -2.80474,2.13389 -0.42191,-0.11033 -1.22262,0.11846 -1.77937,0.50842 -0.55674,0.38996 -0.87056,0.47974 -0.69738,0.19951 0.17321,-0.28025 -0.0828,-0.72231 -0.56884,-0.98247 -0.64774,-0.34665 -0.94489,-0.32244 -1.11271,0.0907 -0.171,0.42093 -0.3488,0.39129 -0.70224,-0.11708 -0.2603,-0.3744 -0.73534,-0.69148 -1.05565,-0.70462 -1.06142,-0.0435 -3.51352,-1.56764 -4.17508,-2.59501 -0.35829,-0.55641 -0.79553,-1.82853 -0.97165,-2.82693 -0.17611,-0.99841 -0.54253,-2.22372 -0.81426,-2.72292 -1.06711,-1.96043 -1.60912,-4.04735 -1.18416,-4.5594 0.23559,-0.28387 0.31997,-0.62449 0.18752,-0.75695 -0.40319,-0.40319 -0.55487,-6.45099 -0.17413,-6.94301 0.28667,-0.37046 0.63008,-2.33675 0.84843,-4.85782 0.0155,-0.17924 0.52787,-0.58768 1.13856,-0.90764 0.61069,-0.31998 1.0951,-0.78163 1.07646,-1.0259 -0.0186,-0.24427 0.72513,-0.86904 1.65281,-1.38839 1.36294,-0.76301 2.12837,-0.88761 3.98767,-0.64908 2.98709,0.38321 4.1492,-0.53718 3.50673,-2.77732 -0.22883,-0.79788 -0.30228,-1.63478 -0.16322,-1.85977 0.13906,-0.22501 0.0352,-0.67132 -0.23079,-0.99181 -0.3124,-0.37643 -0.34213,-1.07607 -0.0839,-1.97626 0.21981,-0.76644 0.35723,-2.22443 0.30538,-3.23998 -0.06,-1.17453 0.12151,-1.92926 0.49871,-2.074 0.73873,-0.28347 0.77259,-1.71018 0.0576,-2.42519 -0.41134,-0.41134 -0.40452,-0.78 0.0294,-1.59084 0.31066,-0.58049 0.52742,-1.24832 0.48167,-1.48409 -0.0457,-0.23576 -0.0434,-0.53076 0.005,-0.65556 0.24323,-0.62391 0.50128,-2.2553 0.65903,-4.16652 0.0965,-1.16838 0.34615,-2.39369 0.5549,-2.72292 0.20876,-0.32922 0.40821,-0.95597 0.44323,-1.39277 0.035,-0.4368 0.0892,-0.99199 0.1204,-1.23376 0.0312,-0.24177 0.39656,-0.30917 0.81191,-0.14979 0.51062,0.19595 0.64803,0.11643 0.42433,-0.24553 -0.18197,-0.29443 0.0909,-1.07144 0.60628,-1.72669 0.51542,-0.65526 0.93713,-1.41617 0.93713,-1.69093 0,-0.79256 2.37707,-5.27769 2.79712,-5.27769 0.20879,0 0.37962,-0.30274 0.37962,-0.67276 0,-0.37002 0.93579,-1.64638 2.07955,-2.83637 1.14375,-1.18999 2.35042,-2.80764 2.68149,-3.59479 0.33106,-0.78715 1.01088,-1.56098 1.51071,-1.71962 0.49983,-0.15864 1.43731,-0.98139 2.08331,-1.82833 0.64599,-0.84694 1.55326,-1.6601 2.01614,-1.80701 0.46289,-0.14692 1.2239,-0.97697 1.69114,-1.84458 0.53739,-0.99789 1.38211,-1.75323 2.29912,-2.05587 0.79728,-0.26313 1.70562,-0.78689 2.01853,-1.16392 0.44359,-0.53449 5.63975,-3.29442 6.76479,-3.59311 2.18051,-0.57891 2.72399,-0.87959 2.72987,-1.51035 0.005,-0.56488 0.0972,-0.60265 0.38042,-0.15623 0.30117,0.47477 0.4788,0.46185 0.91749,-0.0667 0.34633,-0.41731 1.15035,-0.59913 2.21276,-0.50039 0.91782,0.0853 1.88031,4.8e-4 2.13885,-0.18802 0.25855,-0.18872 0.77642,-0.31566 1.15082,-0.28211 0.3744,0.0335 1.33998,-0.19689 2.14573,-0.51213 1.00189,-0.39197 1.55788,-0.42286 1.75882,-0.0977 0.1827,0.29561 1.00171,0.3528 2.16555,0.1512 2.93071,-0.50762 9.33347,-0.552 9.031,-0.0626 -0.14591,0.2361 -0.0369,0.2881 0.24227,0.11557 0.27917,-0.17253 1.71868,1.3e-4 3.19891,0.3837 1.48023,0.38356 3.27754,0.69739 3.994,0.69739 0.71648,0 2.05136,0.40127 2.96642,0.89172 0.91506,0.49044 2.59136,0.97143 3.72511,1.06887 1.13374,0.0974 2.32211,0.38593 2.64082,0.64111 0.3187,0.25517 1.03895,0.60482 1.60055,0.77699 0.5616,0.17217 1.02109,0.5099 1.02109,0.75051 0,0.24062 0.35739,0.57216 0.79418,0.73676 0.43681,0.16461 1.59976,0.87956 2.58434,1.58879 0.98458,0.70922 2.05019,1.18972 2.36802,1.06775 0.31783,-0.12196 0.70063,-0.0231 0.85067,0.21966 0.15004,0.24276 0.49446,0.3044 0.76538,0.13697 0.294,-0.18171 0.36203,-0.0932 0.16877,0.2195 -0.33669,0.54477 0.14432,0.68279 1.88709,0.54147 0.57758,-0.0468 1.14397,0.23286 1.30117,0.64253 0.15312,0.399 1.17349,1.25002 2.2675,1.89116 1.09402,0.64113 1.90147,1.30751 1.79434,1.48085 -0.10713,0.17333 0.35233,0.68387 1.021,1.13454 1.76114,1.18694 4.45195,5.3297 4.88954,7.5279 0.22606,1.13559 1.565,1.84902 2.51548,1.34034 0.46472,-0.24871 0.87048,-0.64923 0.90168,-0.89006 0.0312,-0.24081 0.0826,-0.59101 0.11417,-0.77821 0.0316,-0.1872 0.4796,-1.05513 0.99558,-1.92873 0.51597,-0.87361 1.01475,-1.79259 1.10839,-2.04219 0.25522,-0.68023 1.43548,-1.81737 2.77388,-2.67254 1.38877,-0.88735 3.3864,-0.58173 6.80513,1.0411 1.62023,0.76911 2.52279,1.65887 3.9713,3.91494 1.62386,2.52919 1.86147,3.22014 1.77677,5.16673 -0.0676,1.5532 0.13181,2.50157 0.6457,3.07118 0.63684,0.70587 0.6547,0.94511 0.12454,1.66788 -0.47592,0.6488 -0.49916,1.03562 -0.10059,1.67381 0.39157,0.62703 0.38381,1.08659 -0.0318,1.87912 -0.30255,0.577 -0.62074,1.66176 -0.70708,2.41056 -0.4385,3.803 -6.07453,11.03745 -8.17154,10.48907 -0.48697,-0.12735 -1.25621,-0.0331 -1.70943,0.20947 -0.69821,0.37367 -0.80363,0.9299 -0.69038,3.64262 0.0905,2.16758 0.34368,3.33452 0.78395,3.61312 0.35766,0.22632 0.44608,0.41463 0.19647,0.41845 -0.47664,0.007 -0.55904,0.49066 -0.7748,4.54514 -0.0783,1.47057 -0.39618,2.7021 -0.77384,2.99766 -0.36598,0.28641 -0.51425,0.83199 -0.34557,1.27157 0.17484,0.45561 0.11231,0.65674 -0.15317,0.49266 -0.24672,-0.15249 -0.4486,0.0532 -0.4486,0.45704 0,0.40386 0.18678,0.61886 0.41506,0.47777 0.73582,-0.45477 0.84093,0.84595 0.17489,2.16429 -0.48891,0.96772 -0.52067,1.43279 -0.13,1.90351 0.39959,0.48149 0.31208,0.79835 -0.38546,1.3956 -0.5088,0.43564 -0.7872,1.07297 -0.63825,1.46112 0.18205,0.47441 0.085,0.57772 -0.31204,0.33232 -0.44423,-0.27456 -0.46915,-0.15608 -0.10878,0.51728 0.26355,0.49246 0.30162,1.14169 0.0873,1.48852 -0.20909,0.33832 -0.27576,0.8872 -0.14816,1.21973 0.12761,0.33253 -0.0955,0.73028 -0.4958,0.88389 -0.4003,0.15361 -0.72782,0.51636 -0.72782,0.80611 0,0.28976 -0.53736,1.31763 -1.19413,2.28416 -0.65677,0.96653 -0.9631,1.61453 -0.68073,1.44002 0.28237,-0.17452 0.5134,-0.10103 0.5134,0.1633 0,0.26433 -0.31143,0.4806 -0.69207,0.4806 -0.59522,0 -1.48595,2.31526 -1.24077,3.22512 0.0408,0.15141 -0.42419,0.54201 -1.03331,0.868 -0.60912,0.32599 -1.35746,1.15742 -1.66297,1.84762 -0.30551,0.69021 -0.70892,1.16008 -0.89645,1.04418 -0.18754,-0.1159 -0.75686,0.20515 -1.26517,0.71346 -0.5083,0.50831 -0.92419,0.82061 -0.92419,0.69401 0,-0.20423 -3.69532,2.27377 -5.35057,3.58797 -1.51744,1.20478 -3.272,3.06291 -3.272,3.46515 0,0.24099 -0.39028,0.43817 -0.8673,0.43817 -0.98094,0 -3.35992,2.57846 -2.96641,3.21516 0.22478,0.36371 -0.73709,0.62521 -1.72557,0.46914 -0.1872,-0.0295 -0.34037,0.16253 -0.34037,0.42686 0,0.26433 -0.19397,0.36072 -0.43105,0.2142 -0.23708,-0.14653 -0.65576,0.15347 -0.93041,0.66665 -0.27464,0.51319 -0.66932,0.82802 -0.87706,0.69963 -0.20774,-0.12839 -0.86121,0.12929 -1.45214,0.57263 -1.37069,1.02833 -3.57049,1.98604 -3.57031,1.55438 8e-5,-0.18184 -1.05323,-0.30909 -2.34068,-0.28275 -2.23452,0.0457 -3.1625,0.57757 -3.67141,2.1043 -0.0798,0.23931 -1.15928,0.42148 -2.39892,0.40484 -1.23963,-0.0167 -2.66232,-0.034 -3.16152,-0.0386 -1.66529,-0.0154 -3.69412,0.27691 -4.23261,0.60972 -0.29287,0.181 -0.53249,0.20775 -0.53249,0.0594 0,-0.14831 -0.38803,-0.062 -0.86228,0.19181 -0.66213,0.35436 -0.92616,0.29499 -1.13752,-0.25579 -0.21699,-0.56549 -0.73074,-0.66576 -2.42791,-0.47383 -1.18397,0.13389 -2.21578,0.25618 -2.29292,0.27176 -0.0771,0.0156 -0.0411,0.18862 0.0799,0.38454 0.25921,0.41939 -4.83583,0.45434 -5.96939,0.041 z m 7.12487,-4.68409 c 0.15852,-0.098 2.07845,-0.31331 4.26649,-0.47853 2.18805,-0.16523 4.57149,-0.47054 5.29654,-0.67848 0.72505,-0.20794 1.38052,-0.21595 1.4566,-0.0178 0.0761,0.19815 1.70635,-0.33093 3.62281,-1.17574 1.91646,-0.84481 4.0097,-1.57949 4.65165,-1.63262 0.64194,-0.0531 1.16717,-0.26832 1.16717,-0.47821 0,-0.2099 0.192,-0.26297 0.42665,-0.11794 0.23466,0.14503 1.12955,-0.35347 1.98865,-1.10777 0.85909,-0.7543 1.81697,-1.37145 2.12861,-1.37145 0.31164,0 1.52766,-0.69044 2.70228,-1.53431 1.17461,-0.84388 3.13019,-1.97425 4.34573,-2.51194 1.21554,-0.5377 2.72951,-1.5955 3.36437,-2.35069 0.63487,-0.75518 1.46063,-1.41964 1.83503,-1.47657 1.1387,-0.17316 2.08324,-0.90873 2.99185,-2.32993 0.47609,-0.74469 1.17194,-1.6832 1.54635,-2.0856 4.00311,-4.3024 4.67162,-5.08545 4.08437,-4.78419 -0.40383,0.20717 -0.36055,0.0865 0.1064,-0.29658 0.43292,-0.35519 0.67048,-0.76245 0.5279,-0.90503 -0.14258,-0.14258 0.23762,-0.58478 0.84488,-0.98268 0.9213,-0.60365 1.11732,-1.12741 1.18384,-3.16314 0.0439,-1.34184 0.38438,-3.05039 0.75673,-3.79679 0.37234,-0.74638 0.7844,-2.64665 0.91567,-4.2228 0.13128,-1.57615 0.43921,-3.10736 0.6843,-3.40268 0.28025,-0.33768 0.29039,-0.94522 0.0273,-1.63712 -0.23005,-0.60509 -0.26156,-1.39576 -0.07,-1.75702 0.2826,-0.53297 0.29405,-3.97888 0.0203,-6.10268 -0.0582,-0.45144 -0.0109,-0.67289 0.65586,-3.07209 0.20224,-0.72769 0.13864,-1.77851 -0.15107,-2.496 -0.2752,-0.68156 -0.59146,-2.40222 -0.70281,-3.82369 -0.11135,-1.42147 -0.41268,-2.97732 -0.66963,-3.45743 -0.25695,-0.48012 -0.33823,-1.0019 -0.18061,-1.15952 0.15763,-0.15762 0.0363,-0.28658 -0.26966,-0.28658 -0.30593,0 -0.43002,-0.20422 -0.27576,-0.45382 0.15427,-0.2496 0.0132,-0.45694 -0.31358,-0.46076 -0.45645,-0.005 -0.44587,-0.10076 0.0457,-0.41191 0.53627,-0.33948 0.54455,-0.63466 0.0512,-1.82568 -0.32367,-0.78138 -0.97293,-1.62646 -1.44282,-1.87794 -0.46989,-0.25147 -1.34203,-1.41792 -1.9381,-2.59211 -3.21388,-6.33098 -4.14601,-7.82861 -6.51642,-10.46967 -1.42608,-1.58892 -2.77741,-3.27409 -3.00295,-3.74482 -0.22555,-0.47073 -1.50191,-1.40872 -2.83637,-2.08442 -1.33447,-0.67572 -2.4263,-1.38668 -2.4263,-1.57993 0,-0.19325 -1.0211,-0.8688 -2.2691,-1.50121 -1.248,-0.6324 -2.26909,-1.33438 -2.26909,-1.55995 0,-0.22556 -0.65215,-0.55335 -1.44921,-0.72841 -0.79706,-0.17507 -1.72038,-0.58948 -2.05182,-0.92092 -0.33144,-0.33144 -1.21094,-0.52563 -1.95444,-0.43154 -0.7435,0.0941 -1.35182,0.0144 -1.35182,-0.17721 0,-0.75496 -3.33835,-2.717 -3.99635,-2.34877 -0.36473,0.20412 -1.35171,0.21582 -2.19329,0.026 -0.87637,-0.19766 -1.64331,-0.16198 -1.79502,0.0835 -0.16097,0.26046 -0.4988,0.23449 -0.86109,-0.0662 -0.43764,-0.3632 -0.65875,-0.33889 -0.83141,0.0914 -0.16944,0.4223 -0.24523,0.39512 -0.27104,-0.0972 -0.053,-1.01118 -2.25011,-1.74459 -4.57402,-1.52686 -2.23328,0.20924 -2.15284,0.209 -7.71493,0.0221 -2.12161,-0.0713 -4.05533,-0.0279 -4.29716,0.0963 -0.24183,0.12428 -1.25922,0.27728 -2.26087,0.34003 -1.00166,0.0627 -1.89296,0.32938 -1.98068,0.59256 -0.0877,0.26316 -0.45103,0.47848 -0.80735,0.47848 -0.35633,0 -1.55095,0.4245 -2.65472,0.94334 -1.10377,0.51883 -2.2758,0.9955 -2.60452,1.05925 -1.26993,0.24631 -3.05345,1.32589 -2.81848,1.70607 0.13569,0.21956 -0.38125,0.61811 -1.14878,0.88568 -0.76752,0.26755 -1.3955,0.63793 -1.3955,0.82305 0,0.18512 -0.52206,0.57444 -1.16014,0.86517 -0.63807,0.29073 -1.0359,0.7296 -0.88406,0.97529 0.16396,0.2653 -0.056,0.32729 -0.54169,0.15267 -0.44976,-0.16171 -0.66549,-0.12624 -0.4794,0.0788 0.1861,0.20507 -0.45454,0.72783 -1.42363,1.16171 -2.23431,1.00033 -5.60574,4.02064 -5.3198,4.76577 0.11952,0.31147 -0.14602,0.89511 -0.59008,1.29699 -0.44407,0.40186 -1.04428,1.52134 -1.33382,2.48772 -0.35939,1.19955 -0.77196,1.73721 -1.30026,1.69452 -0.44306,-0.0358 -0.84849,0.32542 -0.9485,0.8451 -0.0961,0.4992 -1.04493,1.72451 -2.10858,2.72291 -1.65199,1.55065 -1.97897,2.16492 -2.243,4.21366 -0.17,1.31911 -0.45428,2.32154 -0.63172,2.22763 -0.6896,-0.36495 -1.68274,1.35119 -1.65625,2.86201 0.0153,0.8736 -0.18891,1.87349 -0.45382,2.22198 -0.77157,1.01497 -1.74853,8.03703 -1.83756,13.20788 -0.0451,2.6208 -0.24513,5.13621 -0.44444,5.58979 -0.21361,0.48613 -0.15576,1.0313 0.14091,1.32797 0.36591,0.36591 0.36719,0.66726 0.005,1.10405 -0.36513,0.43995 -0.34822,0.78194 0.0632,1.27765 0.30898,0.37229 0.56963,1.75076 0.57925,3.06328 0.01,1.31251 0.16352,2.5906 0.34201,2.84021 0.17848,0.2496 0.57601,1.5266 0.88337,2.83777 0.30737,1.31117 0.75247,2.50361 0.98911,2.64986 0.2607,0.16112 0.22734,0.51042 -0.0847,0.88636 -0.58889,0.70957 -0.21919,1.56785 0.67535,1.56785 0.33261,0 0.73703,0.52707 0.89872,1.17127 0.26902,1.07191 2.35719,4.64423 3.0292,5.1822 0.15589,0.1248 0.42352,0.67595 0.59473,1.22479 0.17121,0.54883 0.70928,1.1242 1.19571,1.27858 0.48644,0.15439 0.88443,0.63045 0.88443,1.0579 0,0.42746 0.71477,1.45139 1.58837,2.27539 0.8736,0.824 1.58837,1.78322 1.58837,2.13158 0,0.34838 0.5208,0.97465 1.15734,1.39173 0.63734,0.41759 1.05183,1.03327 0.92251,1.37027 -0.1455,0.37916 0.42879,0.95052 1.5096,1.50192 0.95944,0.48946 1.87654,1.23419 2.038,1.65495 0.16146,0.42076 0.41676,0.64182 0.56733,0.49125 0.35091,-0.35091 2.54133,0.77541 3.31059,1.7023 0.32438,0.39086 1.16414,0.71066 1.86614,0.71066 0.70199,0 1.81068,0.20315 2.46377,0.45145 0.65308,0.2483 1.84063,0.56477 2.639,0.70327 0.79837,0.13849 2.16635,0.73398 3.03995,1.32329 0.8736,0.58932 2.09892,1.0224 2.72292,0.9624 0.624,-0.06 1.59404,0.16716 2.15564,0.5048 0.63083,0.37927 1.02109,0.43091 1.02109,0.13513 0,-0.29025 0.49143,-0.21623 1.248,0.18799 1.11495,0.59567 5.04712,0.63996 5.97372,0.0673 z m -7.38255,-6.04399 c -0.15085,-0.24409 -1.14112,-0.40648 -2.20061,-0.36087 -1.05948,0.0456 -2.45372,-0.18018 -3.09832,-0.50175 -0.64459,-0.32156 -1.62537,-0.65385 -2.1795,-0.73842 -0.55413,-0.0846 -1.29581,-0.56536 -1.64817,-1.06843 -0.50202,-0.71674 -1.08816,-0.89604 -2.70845,-0.82854 -1.27443,0.0531 -2.26255,-0.14852 -2.57539,-0.52548 -0.27918,-0.3364 -0.68869,-0.49972 -0.91001,-0.36293 -0.22132,0.13678 -0.4024,0.0204 -0.4024,-0.25869 0,-0.27907 -0.18198,-0.39491 -0.4044,-0.25745 -0.22242,0.13746 -1.18537,-0.61631 -2.13989,-1.67504 -0.95451,-1.05874 -2.49864,-2.5644 -3.4314,-3.34592 -0.93275,-0.78152 -1.59717,-1.51967 -1.4765,-1.64035 0.12068,-0.12067 -0.30402,-0.56237 -0.94376,-0.98154 -0.63975,-0.41918 -1.05003,-0.94522 -0.91174,-1.16897 0.26587,-0.43019 -1.47791,-2.27622 -2.15014,-2.27622 -0.21727,0 -0.27899,-0.18775 -0.13717,-0.41723 0.14182,-0.22948 -4.8e-4,-0.68897 -0.31628,-1.02109 -1.16418,-1.22447 -3.11161,-5.86788 -2.83132,-6.75099 0.17555,-0.5531 0.0707,-0.88707 -0.27849,-0.88707 -0.30802,0 -0.42566,-0.13438 -0.26143,-0.29862 0.16424,-0.16423 0.0712,-0.57267 -0.20684,-0.90763 -0.278,-0.33497 -0.35485,-0.60903 -0.17078,-0.60903 0.18407,0 0.0393,-0.45949 -0.32169,-1.02109 -0.36101,-0.56161 -0.63977,-1.73586 -0.61947,-2.60947 0.0316,-1.36151 0.20548,-1.60794 1.21723,-1.72543 1.28428,-0.14914 2.63245,1.37568 2.85517,3.22927 0.14946,1.24384 0.56672,2.3466 1.70625,4.50927 0.49319,0.936 0.77434,1.70182 0.62479,1.70182 -0.14956,0 -0.0544,0.40641 0.21142,0.90312 0.26584,0.49672 0.73251,0.85411 1.03706,0.79419 0.30455,-0.0599 0.48826,0.18959 0.40823,0.55445 -0.08,0.36487 0.1242,0.88012 0.45382,1.145 0.32962,0.26489 0.82024,0.88535 1.09025,1.3788 0.27002,0.49345 0.93373,1.09878 1.47492,1.34516 0.54118,0.24639 0.98397,0.79341 0.98397,1.21559 0,0.42218 0.30633,1.07394 0.68073,1.44834 0.3744,0.3744 0.68073,0.89235 0.68073,1.151 0,0.25864 0.43308,0.70204 0.9624,0.98532 0.75223,0.40259 0.88623,0.39181 0.61357,-0.0494 -0.42849,-0.69332 2.33763,0.89151 3.20334,1.83533 0.34342,0.3744 1.06273,1.16064 1.59848,1.7472 0.65938,0.72193 1.12299,0.91757 1.43499,0.60556 0.31201,-0.312 1.08504,-0.11247 2.39274,0.61761 1.06249,0.59318 2.04955,0.96078 2.19345,0.81688 0.1439,-0.1439 0.87264,-0.0486 1.61943,0.21169 0.999,0.34825 1.41538,0.33213 1.57571,-0.061 0.15146,-0.37138 0.22884,-0.35316 0.25374,0.0598 0.0197,0.32673 0.24511,0.46472 0.50089,0.30663 0.25578,-0.15808 0.40895,-0.0214 0.34037,0.30364 -0.0926,0.43876 0.69778,0.60032 3.06725,0.62697 1.75558,0.0198 3.44038,0.18943 3.74401,0.37708 0.30363,0.18766 0.55206,0.14857 0.55206,-0.0869 0,-0.23543 0.99642,-0.37334 2.21428,-0.30648 1.21785,0.0669 2.48321,-0.0447 2.81191,-0.2478 0.32871,-0.20315 0.95184,-0.1798 1.38476,0.0519 0.56295,0.30128 1.00938,0.19901 1.56751,-0.35913 0.99144,-0.99144 2.97496,-2.03024 3.28486,-1.72034 0.13014,0.13014 0.72891,-0.086 1.3306,-0.48019 0.60169,-0.39425 1.36141,-0.61418 1.68827,-0.48876 0.60795,0.23329 2.50912,-1.24183 2.50912,-1.94683 0,-0.21501 0.65563,-0.34554 1.45695,-0.29006 1.17017,0.081 1.81894,-0.26287 3.29592,-1.74703 1.9131,-1.92241 2.32051,-2.12969 4.50618,-2.29271 0.72447,-0.054 1.54134,-0.41785 1.81528,-0.8085 0.27394,-0.39064 0.76095,-1.08533 1.08226,-1.54375 0.3213,-0.45842 0.45932,-0.52717 0.30671,-0.15277 -0.15262,0.37441 0.0439,0.28434 0.43687,-0.20015 0.55612,-0.68576 0.58871,-0.96065 0.14711,-1.24105 -0.42857,-0.27212 -0.40082,-0.37603 0.11348,-0.42504 0.37441,-0.0357 1.17485,-0.11469 1.77876,-0.17559 0.60392,-0.0609 1.33888,-0.4401 1.63324,-0.84267 0.29437,-0.40257 0.66819,-0.59897 0.83071,-0.43645 0.16251,0.16252 0.29549,0.0452 0.29549,-0.26075 0,-0.30593 0.20251,-0.43108 0.45001,-0.27811 0.50431,0.31168 2.72672,-1.72278 2.72672,-2.49613 0,-0.27364 0.70104,0.0372 1.55786,0.6907 0.88346,0.67385 1.53028,1.5543 1.49417,2.03384 -0.0351,0.46509 -0.21083,0.75468 -0.39064,0.64355 -0.17982,-0.11113 -0.45527,0.20225 -0.61211,0.6964 -0.18162,0.57225 -0.85257,1.00491 -1.84794,1.19165 -0.8902,0.167 -1.56279,0.56441 -1.56279,0.9234 0,0.34662 -0.21318,0.63022 -0.47372,0.63022 -0.26054,0 -0.44056,0.25528 -0.40005,0.56728 0.13388,1.03095 -0.0294,1.85756 -0.31126,1.57571 -0.15256,-0.15256 -0.78336,0.32395 -1.40179,1.05891 -0.61843,0.73497 -1.33215,1.3363 -1.58605,1.3363 -0.25389,0 -1.20578,0.56908 -2.1153,1.26464 -0.90952,0.69555 -2.47055,1.66559 -3.46895,2.15564 -0.9984,0.49005 -1.87952,1.03269 -1.95806,1.20587 -0.0785,0.17318 -0.44096,0.20044 -0.80542,0.0606 -0.36446,-0.13986 -1.47009,0.28005 -2.45695,0.93313 -0.98687,0.65308 -2.08001,1.18742 -2.4292,1.18742 -0.34919,0 -0.88726,0.30408 -1.1957,0.67573 -0.30845,0.37165 -0.74189,0.56382 -0.96321,0.42704 -0.22132,-0.13679 -0.4024,0.002 -0.4024,0.30754 0,0.30593 -0.13437,0.42186 -0.29861,0.25763 -0.16423,-0.16423 -0.59182,-0.0553 -0.95019,0.24215 -0.35836,0.29742 -1.27569,0.58839 -2.03849,0.6466 -0.7628,0.0582 -1.50948,0.27258 -1.65927,0.47639 -0.1498,0.20381 -1.59978,0.35949 -3.22219,0.34597 -1.6224,-0.0135 -3.19615,0.15722 -3.49722,0.37943 -0.30106,0.22222 -0.74644,0.28101 -0.98973,0.13065 -0.24329,-0.15036 -0.56209,-0.0796 -0.70846,0.15721 -0.14637,0.23682 -1.2891,0.37053 -2.53941,0.29713 -1.25031,-0.0734 -2.38717,0.0508 -2.52635,0.27601 -0.13918,0.22519 -0.6698,0.27718 -1.17916,0.11552 -0.53527,-0.16989 -1.06977,-0.0615 -1.26654,0.2569 -0.2079,0.33638 -0.44722,0.37805 -0.61472,0.10703 z m 8.55649,-15.08296 c 0.15427,-0.2496 0.37054,-0.45382 0.4806,-0.45382 0.11007,0 0.20013,0.20422 0.20013,0.45382 0,0.24961 -0.21627,0.45382 -0.4806,0.45382 -0.26434,0 -0.35439,-0.20421 -0.20013,-0.45382 z m 7.34171,0.15624 c -0.56359,-0.5636 -9.96737,-1.09752 -10.97226,-0.62298 -0.88945,0.42002 -1.58811,0.37964 -1.30679,-0.0755 0.18464,-0.29876 -0.0959,-0.33975 -0.79202,-0.11574 -0.59286,0.19078 -1.38426,0.31212 -1.75866,0.26964 -0.3744,-0.0425 -1.23932,-0.0716 -1.92203,-0.0646 -0.68749,0.007 -1.68679,-0.4329 -2.23979,-0.9859 -0.94304,-0.94304 -1.00326,-1.42843 -1.08478,-8.74272 -0.0818,-7.33817 -0.42128,-12.221 -0.90402,-13.00211 -0.11971,-0.19368 -0.01,-0.48077 0.24479,-0.63797 0.30358,-0.18762 0.31161,-0.56767 0.0234,-1.10624 -0.24149,-0.45123 -0.29901,-0.96049 -0.12782,-1.13168 0.17119,-0.17119 0.0119,-0.49627 -0.35401,-0.72241 -0.71522,-0.44203 -1.06948,-2.55595 -0.48851,-2.91501 0.41317,-0.25535 0.002,-3.27428 -1.2927,-9.48875 -0.97245,-4.66817 -1.20089,-8.01142 -0.5474,-8.01142 0.63579,0 1.88561,1.60696 1.88561,2.42444 0,0.74147 0.62318,2.07799 1.62039,3.47521 0.68303,0.95701 1.56581,4.15574 1.27621,4.62432 -0.13263,0.21459 0.0293,0.33406 0.35986,0.26548 0.33055,-0.0686 0.6285,0.18163 0.66211,0.55603 0.0336,0.3744 0.10819,0.88495 0.16571,1.13455 0.0575,0.2496 0.0742,0.77629 0.037,1.17042 -0.0739,0.78272 2.44542,6.11532 3.07205,6.5026 0.21335,0.13186 0.73209,-0.012 1.15277,-0.31953 0.71684,-0.52417 1.06715,-2.46385 1.26655,-7.01312 0.0356,-0.81121 0.28683,-1.47805 0.55839,-1.48187 0.27156,-0.003 0.18741,-0.20491 -0.18699,-0.44687 -0.3744,-0.24196 -0.50256,-0.44305 -0.2848,-0.44687 0.21777,-0.003 0.1823,-0.26436 -0.0788,-0.57898 -0.26111,-0.31461 -0.53332,-2.29056 -0.60493,-4.39099 -0.10535,-3.09049 -0.30673,-4.01324 -1.05574,-4.83746 -1.87082,-2.05869 -2.47239,-2.88459 -3.66234,-5.02806 -0.66857,-1.20433 -1.39668,-2.41269 -1.61802,-2.68526 -0.22132,-0.27257 -0.25102,-0.64696 -0.066,-0.832 0.18504,-0.18503 0.13221,-0.29522 -0.11739,-0.24487 -1.13278,0.22854 -1.51756,-0.0993 -1.40088,-1.19364 0.0691,-0.64775 0.37324,-1.3308 0.67596,-1.51789 0.80469,-0.49732 19.66938,-0.55625 20.43413,-0.0638 0.86895,0.55953 1.02157,1.8518 0.21867,1.8518 -0.35232,0 -0.64057,0.21627 -0.64057,0.4806 0,0.26433 -0.19398,0.36072 -0.43106,0.2142 -0.52972,-0.32739 -1.33799,1.13429 -1.05839,1.91401 0.26089,0.72752 3.83655,0.22994 4.33075,-0.60265 0.44309,-0.74649 2.20373,-0.55788 3.65231,0.39126 1.50141,0.98376 1.95155,4.16313 1.06458,7.51921 -0.64767,2.45067 -0.55079,4.15177 0.23645,4.15177 0.23522,0 0.31468,0.18282 0.17658,0.40627 -0.37862,0.61262 0.92174,0.95709 1.48536,0.39347 0.35183,-0.35184 1.01281,-0.14534 2.33466,0.72943 2.63473,1.74358 3.62692,2.6608 3.35472,3.10122 -0.13056,0.21126 -0.069,0.34607 0.13671,0.29958 0.6221,-0.14057 3.03322,0.97839 3.8644,1.79341 0.4289,0.42055 1.4194,1.27519 2.2011,1.89919 0.78171,0.624 1.7152,1.69615 2.07442,2.38255 0.35923,0.6864 0.8401,1.248 1.06861,1.248 0.57551,0 4.32812,3.7508 4.6862,4.68394 0.43639,1.1372 0.9875,0.93662 2.35594,-0.8575 1.86881,-2.45013 4.69374,-4.35419 5.67829,-3.82727 1.1665,0.6243 1.37595,1.53981 0.66554,2.90914 -0.34411,0.66327 -0.43285,1.08678 -0.1972,0.94114 0.24471,-0.15124 0.35935,0.32895 0.26728,1.11961 -0.0887,0.76143 -0.0119,1.38441 0.1707,1.38441 0.41615,0 0.2145,2.01507 -0.28125,2.81045 -0.38808,0.62264 -0.57533,1.67137 -0.83516,4.67757 -0.0863,0.99841 -0.17608,1.92642 -0.19954,2.06227 -0.0235,0.13584 -0.85951,1.123 -1.85791,2.19369 -0.9984,1.07069 -1.81528,2.20121 -1.81528,2.51226 0,0.72737 -2.96358,0.66067 -3.70771,-0.0835 -0.5389,-0.5389 -0.63786,-0.97489 -0.98307,-4.33137 -0.0979,-0.95205 -0.35892,-1.90639 -0.58,-2.12078 -0.49696,-0.4819 -3.85872,0.38981 -6.30161,1.63402 -0.99841,0.50851 -2.3726,0.87071 -3.05376,0.80489 -0.68116,-0.0658 -1.35692,0.072 -1.50169,0.30623 -0.14478,0.23424 -0.69415,0.4259 -1.22084,0.4259 -0.52669,0 -2.04628,0.6144 -3.37686,1.36534 -1.33058,0.75093 -2.41925,1.23647 -2.41925,1.07898 0,-0.1575 -0.33771,-0.006 -0.75047,0.33649 -0.41277,0.34256 -0.82121,0.57178 -0.90764,0.50938 -0.46911,-0.33866 -1.15191,0.0468 -2.63611,1.48816 -0.90708,0.88089 -1.83019,1.48978 -2.05137,1.35309 -0.22594,-0.13965 -0.29884,0.9098 -0.16639,2.39514 0.16961,1.90203 0.0658,2.77067 -0.37014,3.0964 -0.97393,0.72774 -2.99067,1.49774 -3.24822,1.2402 z m -0.66432,-9.00572 c 0.46285,-7.13328 0.46312,-7.14647 0.17514,-8.39565 -0.14385,-0.624 -0.57026,-1.36128 -0.94758,-1.6384 -0.37731,-0.27712 -0.68603,-0.83153 -0.68603,-1.23204 0,-0.4005 -0.40083,-0.9427 -0.89074,-1.2049 -0.49583,-0.26536 -0.78203,-0.76 -0.64552,-1.1157 0.13811,-0.35993 -0.15919,-0.85543 -0.68073,-1.13455 -0.5549,-0.29697 -0.82144,-0.76788 -0.66516,-1.17514 0.14343,-0.37377 -0.009,-1.00444 -0.33834,-1.40148 -0.66921,-0.80635 -0.94725,-5.96874 -0.34163,-6.34304 0.21332,-0.13183 0.17589,-0.63574 -0.0832,-1.1198 -0.31285,-0.58456 -0.31704,-0.88009 -0.0124,-0.88009 0.29112,0 0.31348,-0.38155 0.0613,-1.04498 -0.23594,-0.62055 -0.22222,-1.35783 0.0337,-1.81528 0.26897,-0.48061 0.27118,-1.05603 0.006,-1.53009 -0.26929,-0.48119 -0.25277,-1.25443 0.0451,-2.10875 0.33687,-0.96632 0.32236,-1.58577 -0.0512,-2.18387 -0.28679,-0.45921 -0.52143,-1.22119 -0.52143,-1.6933 0,-0.4721 -0.30332,-1.58432 -0.67405,-2.47159 -0.67004,-1.60363 -0.66443,-1.62218 0.94091,-3.11871 1.64266,-1.53129 3.57201,-4.85262 3.09518,-5.32825 -0.41462,-0.41358 -10.7621,0.0165 -11.64425,0.48402 -1.2721,0.67413 -0.94671,1.85601 1.55914,5.66307 2.89236,4.39431 3.42399,7.14104 3.09251,15.97801 -0.12479,3.32706 -0.0698,6.32821 0.12223,6.66922 0.36015,0.63957 -1.81476,3.26139 -2.90179,3.49806 -0.63404,0.13804 -2.61625,2.34847 -3.46045,3.85886 -0.56384,1.0088 -0.85933,15.10615 -0.32778,15.6377 0.13173,0.13173 3.6545,0.21682 7.82839,0.18909 l 7.58888,-0.0504 0.32392,-4.99202 z m 6.31481,-3.85746 c 0.68106,0 1.50814,-0.2667 1.83797,-0.59267 0.60668,-0.59957 2.03649,-1.30953 2.86879,-1.42446 0.50877,-0.0703 2.70356,-1.00544 4.08437,-1.74033 0.4992,-0.26567 1.82663,-0.52814 2.94983,-0.58325 2.4386,-0.11964 4.08437,-0.59706 4.08437,-1.18484 0,-0.23522 0.19845,-0.30502 0.441,-0.15512 0.24255,0.14991 0.95732,-0.0657 1.58837,-0.47923 0.63105,-0.41348 1.14737,-0.59637 1.14737,-0.40641 0,0.18996 0.49987,-0.194 1.11083,-0.85323 0.97105,-1.04779 1.27084,-1.13921 2.38255,-0.72656 1.52776,0.56707 2.43313,1.6484 2.10221,2.51077 -0.13295,0.34645 0.28951,1.26125 0.93881,2.03289 0.64929,0.77164 1.18674,1.64258 1.19433,1.93544 0.0169,0.65381 1.04091,-1.02005 1.20119,-1.96356 0.0636,-0.3744 0.23834,-1.80393 0.38829,-3.17673 0.14997,-1.37281 0.34078,-3.05761 0.42403,-3.74401 0.0832,-0.6864 0.0764,-1.248 -0.0152,-1.248 -0.0916,0 -0.8781,0.71152 -1.74774,1.58116 -0.92307,0.92308 -1.7022,1.38531 -1.87199,1.11059 -0.15996,-0.25881 -0.52739,-0.38684 -0.81651,-0.28451 -0.28913,0.10233 -1.40382,-0.61527 -2.47711,-1.59467 -1.07328,-0.9794 -2.18353,-1.70336 -2.46721,-1.60879 -0.52278,0.17425 -5.33849,-4.38394 -5.33849,-5.05302 0,-0.4313 -1.43888,-1.79018 -1.93353,-1.82603 -0.63453,-0.046 -2.82419,-1.60224 -3.45193,-2.45337 -0.37512,-0.50862 -0.96468,-0.75108 -1.49135,-0.61335 -0.56691,0.14824 -1.43589,-0.28977 -2.48914,-1.25467 -1.88161,-1.72378 -4.20952,-2.09242 -4.56755,-0.72332 -0.12035,0.46022 -0.60592,0.93799 -1.07903,1.06171 -0.47312,0.12372 -1.04903,0.72156 -1.2798,1.32852 -0.23077,0.60697 -1.35305,2.00521 -2.49397,3.1072 -1.14092,1.10199 -2.07777,2.33609 -2.08189,2.74246 -0.004,0.40635 -0.44982,1.03251 -0.99042,1.39146 l -0.98292,0.65263 0.89904,1.33145 c 0.49447,0.7323 1.34522,1.9869 1.89056,2.788 0.54533,0.80109 0.99152,1.64028 0.99152,1.86486 0,0.22458 0.69555,1.2873 1.54567,2.3616 0.85013,1.0743 1.44706,2.21029 1.32652,2.52441 -0.12054,0.31413 0.0212,1.02018 0.31487,1.56901 0.29373,0.54883 0.33498,0.87483 0.0917,0.72446 -0.2433,-0.15037 -0.44237,0.24874 -0.44237,0.88691 0,0.82751 0.13993,1.02039 0.48786,0.67245 0.26832,-0.26831 1.04509,-0.48785 1.72613,-0.48785 z m -7.74538,-20.17773 c 0.23426,0.14479 0.42592,0.009 0.42592,-0.30161 0,-0.31067 0.82897,-1.54796 1.84216,-2.74954 1.89522,-2.24762 1.98102,-3.21693 0.27014,-3.05196 -1.687,0.16266 -2.56612,-0.49527 -2.56612,-1.92048 0,-1.14009 0.1163,-1.26663 0.81864,-0.89075 0.50025,0.26772 1.07388,0.27663 1.47491,0.0229 0.36096,-0.22836 1.29814,-0.41833 2.08264,-0.42215 1.70386,-0.008 1.75038,-0.13512 1.75038,-4.77205 l 0,-3.63056 -2.2691,0.14241 c -3.12592,0.19618 -3.66343,0.40151 -4.53563,1.73265 -0.73545,1.12243 -1.34797,4.43639 -0.75147,4.06574 0.16229,-0.10084 0.24396,2.80982 0.18148,6.46813 -0.0829,4.8514 0.0168,6.43398 0.36825,5.84776 0.26503,-0.44205 0.67353,-0.68528 0.9078,-0.54049 z m -22.26505,28.15245 c -0.8736,-0.58375 -1.74153,-0.97107 -1.92873,-0.86071 -0.1872,0.11037 -0.34036,-0.0276 -0.34036,-0.30672 0,-0.27906 -0.19167,-0.38893 -0.42593,-0.24415 -0.23426,0.14478 -0.63648,-0.0984 -0.89384,-0.54049 -0.25735,-0.44205 -0.47412,-0.63241 -0.48171,-0.42302 -0.0119,0.32737 -0.80523,-0.22167 -3.51384,-2.4317 -0.30262,-0.24691 -1.06203,-0.68212 -1.68759,-0.96715 -0.62556,-0.28502 -1.02962,-0.69258 -0.89792,-0.90568 0.2179,-0.35257 -0.43502,-0.57605 -1.28902,-0.4412 -0.18719,0.0295 -0.34036,-0.18452 -0.34036,-0.47572 0,-0.2912 -0.11913,-0.41032 -0.26472,-0.26472 -0.27963,0.27962 -2.08536,-1.32689 -1.89092,-1.68229 0.18927,-0.34596 -1.66662,-1.54299 -2.03719,-1.31397 -0.31755,0.19626 -0.52816,-0.49767 -0.3991,-1.31503 0.0296,-0.1872 -0.16253,-0.34036 -0.42687,-0.34036 -0.26432,0 -0.36072,-0.19398 -0.21419,-0.43106 0.14652,-0.23707 -0.14776,-0.65269 -0.65395,-0.9236 -0.50619,-0.27091 -0.92035,-0.34766 -0.92035,-0.17057 0,0.17709 -0.51494,-0.16178 -1.14431,-0.75304 -0.62937,-0.59126 -1.49171,-1.12601 -1.9163,-1.18833 -1.18405,-0.17378 -1.97526,-1.50315 -1.46363,-2.45914 0.30115,-0.5627 0.26133,-0.87752 -0.13104,-1.03603 -0.4291,-0.17334 -0.42184,-0.23624 0.0304,-0.26351 0.32673,-0.0197 0.47418,-0.22981 0.32765,-0.46689 -0.33553,-0.54291 1.43253,-1.52541 2.05394,-1.14135 0.25349,0.15666 1.29439,-0.54866 2.31311,-1.56739 1.01872,-1.01871 2.10471,-1.85222 2.4133,-1.85222 0.30858,0 1.11555,-0.51388 1.79325,-1.14194 0.6777,-0.62807 1.42193,-1.02468 1.65384,-0.88135 0.51179,0.31631 2.125,-0.74653 2.09514,-1.38035 -0.0118,-0.2496 0.5773,-0.65804 1.30901,-0.90764 0.73171,-0.2496 1.69439,-0.76015 2.13928,-1.13455 0.44489,-0.3744 0.95544,-0.68436 1.13455,-0.68881 0.58695,-0.0146 4.62572,-2.10263 4.88811,-2.52719 0.67385,-1.09031 1.46141,-0.2793 1.69076,1.74109 0.27137,2.39066 0.24407,2.4687 -0.90648,2.59112 -1.12879,0.1201 -4.21144,1.5483 -4.21573,1.95316 -0.002,0.18385 -0.46144,0.55913 -1.0211,0.83395 -1.29257,0.63474 -5.63984,2.98751 -6.62351,3.5847 -0.41113,0.2496 -1.2967,0.93935 -1.96793,1.53277 -0.67123,0.59341 -1.67619,1.30818 -2.23326,1.58836 -0.55706,0.28019 -1.09245,0.75091 -1.18974,1.04606 -0.23639,0.71711 3.41353,4.37678 5.36049,5.37481 0.85361,0.43757 1.65414,0.94441 1.77893,1.12632 0.1248,0.18191 1.12667,0.94127 2.22637,1.68746 l 1.99947,1.35671 1.10018,-0.95659 c 0.6051,-0.52613 1.31962,-0.9566 1.58783,-0.9566 0.26821,0 0.54273,-0.37529 0.61005,-0.83398 0.0673,-0.4587 0.49523,-1.25962 0.9509,-1.77984 0.45568,-0.52021 0.5688,-0.79383 0.25138,-0.60805 -0.32735,0.19159 -0.16893,-0.44534 0.366,-1.47165 1.15791,-2.22149 1.87042,-2.53795 3.11131,-1.38188 l 0.95755,0.8921 -0.90129,1.76668 c -0.49571,0.97167 -1.10843,1.89469 -1.36159,2.05116 -0.25317,0.15646 -0.46031,0.78298 -0.46031,1.39225 0,0.60927 -0.17144,1.10776 -0.38097,1.10776 -0.50535,0 -1.43431,2.0786 -1.43431,3.20932 0,0.92372 1.97352,2.01894 2.76101,1.53225 0.22865,-0.14132 0.41573,0.35619 0.41573,1.10557 0,0.76917 0.34584,1.62074 0.79418,1.95552 0.97796,0.73023 1.05788,2.80578 0.11346,2.94695 -0.37441,0.056 -1.3955,-0.37585 -2.2691,-0.95961 z m -5.72941,-18.76302 c -0.53037,-0.43125 -1.10067,-1.36485 -1.26733,-2.07466 -0.77357,-3.29464 5.17648,-5.17069 6.70181,-2.11308 0.60304,1.20881 0.60304,1.51411 0,2.72292 -0.39128,0.78435 -1.03848,1.36145 -1.5268,1.36145 -0.46619,0 -0.97383,0.20423 -1.12809,0.45382 -0.42487,0.68746 -1.701,0.52656 -2.77959,-0.35045 z m 3.23341,-2.37246 c 0,-0.98421 -1.77052,-0.84864 -1.96289,0.15031 -0.12411,0.64445 0.0783,0.79729 0.90143,0.68073 0.5838,-0.0827 1.06146,-0.45664 1.06146,-0.83104 z m -18.80187,-2.38924 c -1.5937,-0.81005 -1.9495,-2.64777 -0.85961,-4.43995 0.62216,-1.02307 0.86183,-2.15597 0.80019,-3.78258 -0.0985,-2.60067 0.31684,-4.60667 1.23004,-5.94017 0.33716,-0.49233 0.61302,-1.33526 0.61302,-1.87316 0,-0.5379 0.32275,-1.24586 0.71722,-1.57324 0.41106,-0.34115 0.6335,-1.03321 0.5211,-1.6212 -0.11405,-0.59662 0.0606,-1.12447 0.41733,-1.26136 0.3374,-0.12947 0.61345,-0.50612 0.61345,-0.837 0,-0.33087 0.76582,-1.43599 1.70182,-2.4558 3.41643,-3.72235 4.56162,-5.25635 4.80301,-6.43366 0.17414,-0.84928 0.8542,-1.52045 2.31666,-2.28634 1.1386,-0.59629 2.07017,-1.32933 2.07017,-1.62898 0,-0.29965 0.51055,-0.77744 1.13455,-1.06176 0.624,-0.28431 1.13455,-0.70641 1.13455,-0.93799 0,-0.23159 0.3806,-0.32153 0.84579,-0.19989 0.53616,0.14021 1.16086,-0.17937 1.70643,-0.87295 0.47335,-0.60177 1.11384,-1.00973 1.42331,-0.90658 0.30946,0.10316 0.56266,-0.0457 0.56266,-0.33086 0,-0.28513 0.2,-0.39482 0.44444,-0.24374 0.24445,0.15107 0.90816,0.0242 1.47492,-0.28191 0.56676,-0.30612 2.15367,-0.83587 3.52648,-1.17722 3.00553,-0.74732 3.19346,-0.80266 4.17609,-1.22966 0.42486,-0.18462 0.97234,-0.21214 1.21665,-0.0611 0.24431,0.15098 0.57859,0.0571 0.74286,-0.20874 0.21106,-0.34149 0.47032,-0.3408 0.8838,0.002 0.37281,0.30941 0.97565,0.33958 1.66142,0.0831 0.59196,-0.22136 1.48473,-0.2472 1.98393,-0.0574 0.53331,0.20274 1.28198,0.11229 1.81528,-0.21931 0.96199,-0.59815 6.73556,-0.69786 7.30723,-0.12619 0.18263,0.18263 0.83041,0.33206 1.4395,0.33206 1.83977,0 7.44685,1.38458 9.82302,2.42564 1.22773,0.5379 2.35093,0.98778 2.496,0.99974 0.57775,0.0476 5.25722,2.78763 7.12689,4.1731 1.09249,0.80955 1.99256,1.32009 2.00015,1.13454 0.008,-0.18555 0.21721,0.0115 0.46582,0.43797 0.24932,0.42766 0.7519,0.66026 1.12075,0.51872 0.3678,-0.14114 0.66872,-0.0521 0.66872,0.19776 0,0.24991 0.6441,1.13969 1.43134,1.97729 0.78723,0.83759 1.92118,2.49294 2.51989,3.67855 0.5987,1.1856 1.23725,2.15564 1.419,2.15564 0.18174,0 0.56169,0.61265 0.84433,1.36145 0.36106,0.95656 0.82929,1.37212 1.57441,1.39729 0.58328,0.0197 0.79511,0.14221 0.47074,0.27223 -0.4733,0.18971 -0.45863,0.43655 0.0743,1.24985 0.36522,0.55739 0.76667,1.66467 0.89211,2.4606 0.12545,0.79594 0.70468,1.84435 1.2872,2.32978 0.58251,0.48545 0.92356,0.88942 0.75788,0.89772 -0.16568,0.008 0.0725,1.03771 0.52938,2.28756 0.45683,1.24985 0.64344,2.15678 0.41469,2.01541 -0.52919,-0.32706 -0.52293,-0.0902 0.0365,1.38127 0.30071,0.79094 0.30071,1.09625 0,0.9104 -0.24886,-0.1538 -0.45246,0.0508 -0.45246,0.45466 0,0.40387 0.19775,0.61208 0.43944,0.46271 0.24169,-0.14937 0.16243,0.38722 -0.17613,1.19242 -0.61365,1.45943 -2.37444,2.54835 -3.0332,1.87581 -0.19082,-0.19481 -0.4429,-1.20385 -0.56018,-2.24231 -0.11729,-1.03846 -0.68561,-2.52702 -1.26294,-3.3079 -0.67191,-0.9088 -1.17588,-2.43422 -1.40031,-4.23845 -0.19284,-1.55026 -0.38681,-3.06515 -0.43102,-3.36641 -0.0442,-0.30126 -0.35269,-0.65224 -0.68549,-0.77994 -0.3328,-0.12771 -0.6051,-0.43259 -0.6051,-0.67751 0,-0.7865 -2.85353,-4.70401 -5.0905,-6.98855 -1.19383,-1.21922 -2.17061,-2.39389 -2.17061,-2.61037 0,-0.21649 -0.27871,-0.28666 -0.61934,-0.15594 -0.34325,0.13171 -1.1525,-0.39594 -1.81528,-1.18361 -0.65777,-0.78171 -1.19593,-1.16974 -1.19593,-0.86231 0,0.37273 -0.27653,0.30872 -0.82992,-0.19209 -0.45645,-0.41308 -1.06911,-0.75106 -1.36146,-0.75106 -0.29234,0 -0.53154,-0.22923 -0.53154,-0.50939 0,-0.36473 -0.16641,-0.37128 -0.58597,-0.0231 -0.43392,0.36012 -0.72195,0.26858 -1.10998,-0.35276 -0.55898,-0.89506 -3.02869,-2.29152 -4.05267,-2.29152 -0.33944,0 -0.97178,-0.18224 -1.40519,-0.40499 -0.43342,-0.22274 -1.29857,-0.63284 -1.92258,-0.91133 -0.624,-0.27849 -1.82705,-0.92506 -2.67343,-1.43681 -1.24038,-0.74997 -2.5502,-0.97114 -6.75217,-1.14012 -2.86729,-0.11531 -5.40498,-0.32814 -5.6393,-0.47296 -0.23433,-0.14482 -0.52664,0.12138 -0.64959,0.59154 -0.18321,0.70057 -0.67424,0.86137 -2.72078,0.89095 -1.37348,0.0198 -2.72952,0.26838 -3.01341,0.55227 -0.28389,0.2839 -1.5282,0.51617 -2.76512,0.51617 -1.68369,0 -2.61312,0.27776 -3.6978,1.10509 -0.90316,0.68887 -2.20123,1.15892 -3.44648,1.24801 -1.55934,0.11155 -2.09593,0.36694 -2.44562,1.16401 -0.24638,0.56159 -0.69717,1.02109 -1.00174,1.02109 -0.30458,0 -1.12408,0.75105 -1.82112,1.66901 -0.69705,0.91796 -2.23739,2.7246 -3.423,4.01477 -1.1856,1.29016 -2.15564,2.60296 -2.15564,2.91732 0,0.31436 -0.51055,0.97316 -1.13455,1.464 -0.81591,0.6418 -1.13454,1.32927 -1.13454,2.44787 0,0.85549 -0.21464,1.55543 -0.47698,1.55543 -0.26234,0 -0.75813,0.66371 -1.10177,1.47491 -0.34364,0.8112 -1.01706,1.7126 -1.49648,2.00311 -0.64564,0.39123 -0.94835,1.26178 -1.16737,3.3572 -0.16263,1.55595 -0.52489,3.10518 -0.80503,3.44272 -0.38407,0.46278 -0.36272,0.61372 0.0868,0.61372 0.37329,0 0.28332,0.22873 -0.24067,0.61189 -0.56139,0.41049 -0.70746,0.82116 -0.44382,1.24773 0.64229,1.03926 0.21491,3.30118 -0.7848,4.15349 -1.1015,0.93909 -1.18624,0.94623 -2.61461,0.22022 z m 28.69686,-10.43116 c -0.58342,-0.77493 -0.67735,-2.95677 -0.14155,-3.28792 0.23993,-0.14828 1.05367,-0.34775 1.80832,-0.44326 1.28569,-0.16271 1.37209,-0.079 1.37209,1.32948 0,1.09683 -0.30235,1.70124 -1.11858,2.23605 -1.34397,0.8806 -1.3797,0.88368 -1.92028,0.16565 z m -40.45767,44.16866 c 0.4626,-0.0541 3.19722,-5.08739 2.91651,-5.3681 -0.13728,-0.13729 0.0409,-0.47403 0.39597,-0.74831 0.82467,-0.63704 0.40843,-2.95239 -0.60618,-3.37186 -0.40383,-0.16697 -0.78262,-0.71201 -0.84175,-1.21121 -0.36838,-3.11014 -0.78915,-4.68077 -1.53852,-5.7428 -0.46749,-0.66253 -0.85112,-1.3773 -0.85251,-1.58837 -0.001,-0.21107 -0.21521,-1.14958 -0.47515,-2.08558 -0.45188,-1.62715 -0.55632,-1.70087 -2.38002,-1.68003 -2.62656,0.03 -5.09458,1.3018 -5.0481,2.60131 0.0198,0.5541 -0.1115,1.00745 -0.29181,1.00745 -0.18032,0 -0.44947,0.31693 -0.59812,0.7043 -0.15497,0.40386 -0.0789,0.58603 0.17836,0.42703 0.56034,-0.3463 0.56975,0.24359 0.0178,1.11609 -0.22932,0.36249 -0.29865,0.85045 -0.15409,1.08436 0.14456,0.2339 0.33741,2.16256 0.42856,4.2859 0.1413,3.29168 0.36852,4.21506 1.54181,6.26577 0.7618,1.33149 1.82328,2.54522 2.37786,2.71893 0.55098,0.17258 1.46513,0.6755 2.03143,1.11759 0.56631,0.44209 1.38318,0.73595 1.81528,0.65302 0.4321,-0.0829 0.9193,-0.1664 1.08267,-0.18549 z m 107.43121,-46.41046 c 0.77842,-0.79618 1.41531,-1.77183 1.41531,-2.16811 0,-0.39628 0.30101,-1.15027 0.66893,-1.67554 0.3679,-0.52526 0.64086,-1.70137 0.60657,-2.61359 -0.0343,-0.91221 0.15505,-1.87597 0.42077,-2.14169 0.47241,-0.47241 0.14949,-2.41727 -0.60369,-3.63594 -0.18739,-0.3032 -0.42439,-1.68175 -0.52668,-3.06343 -0.13893,-1.87671 -0.45812,-2.78432 -1.26188,-3.58807 -0.59175,-0.59175 -1.26683,-0.95791 -1.50018,-0.81369 -0.23336,0.14422 -0.39628,-0.0929 -0.36206,-0.52686 0.0392,-0.49723 -0.31518,-0.84277 -0.95815,-0.93423 -0.7597,-0.10806 -1.13959,0.16847 -1.48709,1.08246 -0.25671,0.67518 -1.494,2.457 -2.74955,3.9596 -1.49494,1.78912 -2.10386,2.8426 -1.76432,3.05244 0.28515,0.17624 0.53277,0.50182 0.55026,0.72352 0.0175,0.22169 0.30638,1.06022 0.64197,1.86341 0.33559,0.80319 0.61017,1.86328 0.61017,2.35577 0,0.49249 0.21814,1.03025 0.48476,1.19503 0.26662,0.16478 0.38468,0.56038 0.26238,0.87912 -0.12232,0.31874 -0.0245,0.77738 0.21729,1.01921 0.24182,0.24182 0.51147,1.23674 0.59922,2.21094 0.0877,0.97419 0.18027,1.92443 0.20559,2.11162 0.0844,0.62386 1.85249,2.15565 2.4882,2.15565 0.34478,0 1.26376,-0.65143 2.04218,-1.44762 z"
       id="path3401"
       inkscape:connector-curvature="0"
       inkscape:export-xdpi="300"
       inkscape:export-ydpi="300" />
    <text
       xml:space="preserve"
       style="color:#000000;font-style:normal;font-variant:normal;font-weight:bold;font-stretch:normal;font-size:68.75px;line-height:125%;font-family:Sans;-inkscape-font-specification:'Sans, Bold';text-indent:0;text-align:center;text-decoration:none;text-decoration-line:none;text-decoration-style:solid;text-decoration-color:#000000;letter-spacing:normal;word-spacing:normal;text-transform:none;direction:ltr;block-progression:tb;writing-mode:lr-tb;baseline-shift:baseline;text-anchor:middle;white-space:normal;clip-rule:nonzero;display:inline;overflow:visible;visibility:visible;opacity:1;isolation:auto;mix-blend-mode:normal;color-interpolation:sRGB;color-interpolation-filters:linearRGB;solid-color:#000000;solid-opacity:1;fill:#0000ff;fill-opacity:1;fill-rule:nonzero;stroke:none;stroke-width:0.42300001;stroke-linecap:square;stroke-linejoin:miter;stroke-miterlimit:4;stroke-dasharray:none;stroke-dashoffset:0;stroke-opacity:1;marker:none;color-rendering:auto;image-rendering:auto;shape-rendering:auto;text-rendering:auto;enable-background:accumulate"
       id="text3403"
       sodipodi:linespacing="125%"
       x="436.16077"
       y="293.59384"
       transform="matrix(0.41848189,0.24331162,-0.24331162,0.41848189,664.65609,581.24819)"
       inkscape:export-xdpi="300"
       inkscape:export-ydpi="300"><textPath
         xlink:href="#path3411"
         startOffset="50%"
         id="textPath3416"><tspan
   id="tspan3405"
   style="font-style:normal;font-variant:normal;font-weight:bold;font-stretch:normal;font-size:68.75px;line-height:125%;font-family:Sans;-inkscape-font-specification:'Sans, Bold';text-align:center;writing-mode:lr-tb;text-anchor:middle;fill:#0000ff">La Cuina</tspan></textPath></text>
    <text
       xml:space="preserve"
       style="color:#000000;font-style:normal;font-variant:normal;font-weight:bold;font-stretch:normal;font-size:30.63515854px;line-height:125%;font-family:Sans;-inkscape-font-specification:'Sans, Bold';text-indent:0;text-align:center;text-decoration:none;text-decoration-line:none;text-decoration-style:solid;text-decoration-color:#000000;letter-spacing:normal;word-spacing:normal;text-transform:none;direction:ltr;block-progression:tb;writing-mode:lr-tb;baseline-shift:baseline;text-anchor:middle;white-space:normal;clip-rule:nonzero;display:inline;overflow:visible;visibility:visible;opacity:1;isolation:auto;mix-blend-mode:normal;color-interpolation:sRGB;color-interpolation-filters:linearRGB;solid-color:#000000;solid-opacity:1;fill:#0000ff;fill-opacity:1;fill-rule:nonzero;stroke:none;stroke-width:0.42300001;stroke-linecap:square;stroke-linejoin:miter;stroke-miterlimit:4;stroke-dasharray:none;stroke-dashoffset:0;stroke-opacity:1;marker:none;color-rendering:auto;image-rendering:auto;shape-rendering:auto;text-rendering:auto;enable-background:accumulate"
       x="187.47891"
       y="798.56427"
       id="text3407"
       sodipodi:linespacing="125%"
       inkscape:export-xdpi="300"
       inkscape:export-ydpi="300"><tspan
         sodipodi:role="line"
         id="tspan3409"
         x="187.47891"
         y="798.56427">Mediterrània</tspan></text>
    <path
       style="color:#000000;clip-rule:nonzero;display:inline;overflow:visible;visibility:visible;opacity:1;isolation:auto;mix-blend-mode:normal;color-interpolation:sRGB;color-interpolation-filters:linearRGB;solid-color:#000000;solid-opacity:1;fill:none;fill-opacity:1;fill-rule:nonzero;stroke:none;stroke-width:0.42300001;stroke-linecap:square;stroke-linejoin:miter;stroke-miterlimit:4;stroke-dasharray:none;stroke-dashoffset:0;stroke-opacity:1;marker:none;color-rendering:auto;image-rendering:auto;shape-rendering:auto;text-rendering:auto;enable-background:accumulate"
       id="path3411"
       sodipodi:type="arc"
       sodipodi:cx="710.13385"
       sodipodi:cy="-763.79932"
       sodipodi:rx="176.11226"
       sodipodi:ry="178.17557"
       sodipodi:start="3.156764"
       sodipodi:end="3.1427795"
       d="m 534.04186,-766.50238 a 176.11226,178.17557 0 0 1 178.14809,-175.46036 176.11226,178.17557 0 0 1 174.05027,179.62072 176.11226,178.17557 0 0 1 -176.9311,176.71632 176.11226,178.17557 0 0 1 -175.2874,-178.38508 l 176.11213,0.21146 z"
       transform="matrix(-0.99994094,0.01086791,-0.01524614,-0.99988377,0,0)" />
  </g>
</svg>
